<svg width="131" height="26" viewBox="0 0 131 26" fill="none" xmlns="http://www.w3.org/2000/svg">
<path d="M17.9866 0H21V22H17.7599V4.88083L10.8303 13.387H10.2362L3.22446 4.88083V22H0V0H3.05248L10.541 9.03278L17.9866 0Z" fill="white"/>
<path d="M32.2196 0H34.3784L44 22H40.8548L37.9963 15.5138H28.84L26.1563 21.9924H23L32.2196 0ZM36.7308 12.7259L33.2692 4.80586L30.0608 12.7259H36.7308Z" fill="white"/>
<path d="M47 21.9886V0H52.5327C54.7661 0 56.5376 0.550508 57.8471 1.65153C58.4959 2.19754 59.0106 2.8843 59.3517 3.65915C59.6929 4.43401 59.8514 5.27638 59.8151 6.12171C59.8443 7.30105 59.5088 8.46084 58.8541 9.44383C58.1706 10.4099 57.2035 11.1414 56.0858 11.5378C56.8584 12.0613 57.551 12.6933 58.1419 13.4144C59.188 14.7479 60.1435 16.1495 61.002 17.6099C61.7678 18.8584 62.3842 19.7967 62.8514 20.4248L64 22H60.2401L59.2905 20.5392C59.2599 20.4896 59.1986 20.3981 59.1029 20.2722L58.4865 19.4064L57.5101 17.8006L56.4572 16.0843C55.9185 15.3173 55.3179 14.5953 54.6615 13.9255C54.2269 13.4781 53.7321 13.093 53.1912 12.7812C52.7547 12.5447 52.0158 12.4265 50.982 12.4265H50.1626V21.9886H47ZM51.1083 2.67372H50.1626V9.60021H51.361C52.9615 9.60021 54.0604 9.46671 54.6577 9.19209C55.2363 8.93055 55.7212 8.49945 56.0475 7.95631C56.3849 7.38748 56.5572 6.73653 56.5453 6.07594C56.553 5.40851 56.3611 4.75389 55.9939 4.19556C55.6265 3.63295 55.0764 3.21291 54.4356 3.00555C53.7655 2.78814 52.659 2.67372 51.1083 2.67372Z" fill="white"/>
<path d="M87.5075 23.0333L84.4362 26C83.4203 25.9385 82.4142 25.7669 81.4353 25.4882C80.3439 25.1777 79.2806 24.7758 78.2565 24.2867C76.76 23.5218 75.3223 22.6467 73.9552 21.6686C71.4367 21.2466 69.1545 19.93 67.5273 17.9601C65.8713 16.0399 64.9728 13.5805 65.0006 11.0439C65.0006 7.85219 66.0849 5.20932 68.2535 3.11529C70.422 1.02127 73.1673 -0.0170932 76.4893 0.000212779C79.7891 0.000212779 82.5319 1.03857 84.7178 3.11529C85.7864 4.11376 86.6313 5.32784 87.1965 6.67733C87.7617 8.02682 88.0344 9.48099 87.9965 10.9438C88.0316 13.487 87.1534 15.9584 85.5217 17.9082C83.9021 19.8888 81.6316 21.2283 79.1161 21.6871L79.9274 21.9949C82.4417 22.9616 84.2547 23.4461 85.3661 23.4486C86.0976 23.4269 86.8208 23.2867 87.5075 23.0333ZM76.4893 2.90762C75.3909 2.87192 74.2966 3.05957 73.2726 3.45922C72.2487 3.85887 71.3163 4.46223 70.5319 5.2328C69.7585 5.99594 69.1505 6.91039 68.7458 7.91911C68.341 8.92784 68.1482 10.0092 68.1794 11.0958C68.1495 12.163 68.3435 13.2245 68.7487 14.212C69.1539 15.1995 69.7614 16.091 70.5319 16.8291C72.1601 18.3111 74.2846 19.1277 76.4853 19.1174C78.686 19.1071 80.8028 18.2706 82.417 16.7734C83.2002 16.034 83.8198 15.1385 84.2359 14.1446C84.6519 13.1507 84.8552 12.0805 84.8326 11.0031C84.8674 9.92379 84.6761 8.84912 84.2709 7.84829C83.8657 6.84745 83.2557 5.94261 82.48 5.19201C81.6834 4.43161 80.7433 3.83791 79.7146 3.44566C78.6859 3.05341 77.5895 2.8705 76.4893 2.90762Z" fill="white"/>
<path d="M99.2175 0H101.377L111 22H107.858L104.995 15.5138H95.8373L93.1569 21.9924H90L99.2175 0ZM103.733 12.7259L100.271 4.80586L97.0583 12.7259H103.733Z" fill="white"/>
<path d="M114 21.9886V0H119.523C121.754 0 123.524 0.550508 124.835 1.65153C125.483 2.19754 125.997 2.8843 126.338 3.65915C126.679 4.43401 126.837 5.27638 126.801 6.12171C126.831 7.30172 126.494 8.46212 125.837 9.44383C125.155 10.4093 124.191 11.1407 123.076 11.5378C123.853 12.0706 124.548 12.713 125.141 13.4449C126.179 14.769 127.129 16.1604 127.982 17.6099C128.747 18.8584 129.363 19.7967 129.83 20.4248L131 22H127.24L126.269 20.5392C126.238 20.4896 126.173 20.3981 126.078 20.2722L125.466 19.4064L124.487 17.8006L123.443 16.0843C122.907 15.3166 122.308 14.5945 121.653 13.9255C121.218 13.4771 120.723 13.0919 120.18 12.7812C119.744 12.5447 119.01 12.4265 117.978 12.4265H117.155V21.9886H114ZM118.104 2.67372H117.155V9.60021H118.356C119.955 9.60021 121.052 9.46671 121.645 9.19209C122.225 8.93284 122.71 8.50119 123.034 7.95631C123.371 7.38748 123.543 6.73653 123.531 6.07594C123.538 5.40851 123.347 4.75389 122.98 4.19556C122.614 3.63231 122.064 3.21208 121.423 3.00555C120.758 2.78814 119.649 2.67372 118.104 2.67372Z" fill="white"/>
</svg>
