<svg width="21" height="22" viewBox="0 0 21 22" fill="none" xmlns="http://www.w3.org/2000/svg">
<path d="M7.21875 3.125C6.69661 3.125 6.19585 3.33242 5.82663 3.70163C5.45742 4.07085 5.25 4.57161 5.25 5.09375V5.75H3.9375C3.24131 5.75 2.57363 6.02656 2.08134 6.51884C1.58906 7.01113 1.3125 7.67881 1.3125 8.375V14.2812C1.3125 14.8034 1.51992 15.3042 1.88913 15.6734C2.25835 16.0426 2.75911 16.25 3.28125 16.25H5.25V16.9062C5.25 17.4284 5.45742 17.9292 5.82663 18.2984C6.19585 18.6676 6.69661 18.875 7.21875 18.875H13.9125C14.4346 18.875 14.9354 18.6676 15.3046 18.2984C15.6738 17.9292 15.8813 17.4284 15.8813 16.9062V16.25H17.7188C18.2409 16.25 18.7417 16.0426 19.1109 15.6734C19.4801 15.3042 19.6875 14.8034 19.6875 14.2812V8.375C19.6875 7.67881 19.4109 7.01113 18.9187 6.51884C18.4264 6.02656 17.7587 5.75 17.0625 5.75H15.75V5.09375C15.75 4.57161 15.5426 4.07085 15.1734 3.70163C14.8042 3.33242 14.3034 3.125 13.7812 3.125H7.21875ZM14.4375 5.75H6.5625V5.09375C6.5625 4.9197 6.63164 4.75278 6.75471 4.62971C6.87778 4.50664 7.0447 4.4375 7.21875 4.4375H13.7812C13.9553 4.4375 14.1222 4.50664 14.2453 4.62971C14.3684 4.75278 14.4375 4.9197 14.4375 5.09375V5.75ZM7.21875 13.625H13.9125C14.0865 13.625 14.2535 13.6941 14.3765 13.8172C14.4996 13.9403 14.5688 14.1072 14.5688 14.2812V16.9062C14.5688 17.0803 14.4996 17.2472 14.3765 17.3703C14.2535 17.4934 14.0865 17.5625 13.9125 17.5625H7.21875C7.0447 17.5625 6.87778 17.4934 6.75471 17.3703C6.63164 17.2472 6.5625 17.0803 6.5625 16.9062V14.2812C6.5625 14.1072 6.63164 13.9403 6.75471 13.8172C6.87778 13.6941 7.0447 13.625 7.21875 13.625Z" fill="#7673B0"/>
</svg>
