<svg width="24" height="17" viewBox="0 0 24 17" fill="none" xmlns="http://www.w3.org/2000/svg">
<path d="M23.5001 3.00708C23.3642 2.52231 23.0995 2.08342 22.7341 1.73708C22.3584 1.38008 21.8979 1.12471 21.3961 0.995076C19.5181 0.500076 11.9941 0.500076 11.9941 0.500076C8.85746 0.464389 5.72156 0.621351 2.60413 0.970076C2.10232 1.10929 1.64269 1.37036 1.26613 1.73008C0.896129 2.08608 0.628129 2.52508 0.488129 3.00608C0.151822 4.81782 -0.0115791 6.65742 0.000128902 8.50008C-0.0118711 10.3411 0.151129 12.1801 0.488129 13.9941C0.625129 14.4731 0.892129 14.9101 1.26313 15.2631C1.63413 15.6161 2.09613 15.8711 2.60413 16.0061C4.50713 16.5001 11.9941 16.5001 11.9941 16.5001C15.1348 16.5358 18.2747 16.3789 21.3961 16.0301C21.8979 15.9004 22.3584 15.6451 22.7341 15.2881C23.0994 14.9418 23.3638 14.5029 23.4991 14.0181C23.8442 12.207 24.012 10.3667 24.0001 8.52308C24.0261 6.67168 23.8585 4.82264 23.5001 3.00608V3.00708ZM9.60213 11.9241V5.07708L15.8621 8.50108L9.60213 11.9241Z" fill="white"/>
</svg>
