<svg width="127" height="125" viewBox="0 0 127 125" fill="none" xmlns="http://www.w3.org/2000/svg">
<path d="M52.2685 9.80758C57.8937 -3.59028 77.377 -1.9626 80.7011 12.1829L84.1016 26.6531C85.5882 32.9791 90.9792 37.6285 97.455 38.1695L112.268 39.407C126.748 40.6167 131.221 59.6494 118.795 67.182L106.084 74.8876C100.527 78.2563 97.7708 84.8202 99.2574 91.1462L102.658 105.616C105.982 119.762 89.263 129.897 78.2592 120.407L67.0028 110.699C62.0818 106.455 54.9875 105.862 49.4305 109.231L36.7194 116.937C24.2934 124.469 9.48784 111.701 15.1131 98.3027L20.8674 84.5974C23.383 78.6056 21.7544 71.6755 16.8334 67.4314L5.57701 57.7236C-5.42682 48.2335 2.14185 30.2068 16.6223 31.4165L31.435 32.654C37.9108 33.195 43.9985 29.5046 46.5142 23.5129L52.2685 9.80758Z" fill="#D38312"/>
</svg>
